<?xml version="1.0" encoding="UTF-8"?>
<svg version="1.1" xmlns="http://www.w3.org/2000/svg" width="1024" height="1024">
<path d="M0 0 C0.98751251 0.00093658 1.97502502 0.00187317 2.99246216 0.00283813 C49.29196101 0.09685714 94.80469292 4.55179155 139.9375 15.1875 C141.00178223 15.43580566 142.06606445 15.68411133 143.16259766 15.93994141 C146.33910386 16.68275964 149.51346347 17.43420579 152.6875 18.1875 C154.27498047 18.55875 154.27498047 18.55875 155.89453125 18.9375 C161.29922617 20.22337537 166.57020147 21.64605028 171.81835938 23.46826172 C173.94556385 24.19023688 176.08153154 24.82734044 178.2421875 25.44140625 C208.84463026 34.16528592 239.36690012 46.02440873 267.37353516 61.20288086 C272.65635846 64.06469894 278.01944959 66.73151985 283.42578125 69.3515625 C288.05221804 71.77027806 292.47927062 74.47421287 296.9375 77.1875 C298.84601646 78.33389574 300.75487925 79.47971506 302.6640625 80.625 C304.63042594 81.81213963 306.59657007 82.9996426 308.5625 84.1875 C310.03976562 85.07308594 310.03976562 85.07308594 311.546875 85.9765625 C316.57387486 89.01957308 321.39967792 92.15340523 326.05126953 95.74462891 C328.63530161 97.72128301 331.30401709 99.56577463 333.97460938 101.42285156 C345.03717963 109.11697783 355.74994804 117.1413633 365.72265625 126.22265625 C368.27155883 128.48385202 370.90790431 130.61407701 373.5625 132.75 C377.37343408 135.83908584 380.90496438 139.01909124 384.30078125 142.5546875 C386.60743128 144.8558324 389.11252817 146.88834677 391.65234375 148.92578125 C392.07644531 149.34214844 392.50054688 149.75851563 392.9375 150.1875 C392.9375 150.8475 392.9375 151.5075 392.9375 152.1875 C393.48921875 152.40148437 394.0409375 152.61546875 394.609375 152.8359375 C397.72084508 154.64226074 399.84259664 157.13865311 402.1875 159.8125 C403.1677244 160.90893657 404.14950154 162.00398692 405.1328125 163.09765625 C405.61137695 163.6302002 406.08994141 164.16274414 406.58300781 164.71142578 C408.34260395 166.62896692 410.19085807 168.44224946 412.0625 170.25 C415.91147197 174.04409864 419.28892752 178.14564727 422.66796875 182.359375 C424.10982206 184.15610786 425.56897359 185.93919869 427.05078125 187.703125 C459.50719176 226.38974228 484.50051689 272.66172642 498.9765625 321.01171875 C499.59124999 323.04318595 500.22971395 325.06770543 500.8984375 327.08203125 C505.87267393 342.26340084 508.73225948 358.05537786 511.1875 373.8125 C511.35056641 374.85365967 511.51363281 375.89481934 511.68164062 376.9675293 C513.41646019 388.57697877 514.09340916 400.1318112 514.10546875 411.86328125 C514.10879715 413.03094528 514.11212555 414.19860931 514.11555481 415.4016571 C514.1205825 417.8596457 514.12296443 420.31764103 514.12280273 422.77563477 C514.12497213 426.4527576 514.14312618 430.12957131 514.16210938 433.80664062 C514.20935962 453.53652032 513.44320727 473.10917513 509.65234375 492.51171875 C509.02216569 495.75214254 508.49363734 498.98675142 508 502.25 C506.8956265 508.91244998 505.2278513 515.4181989 503.52148438 521.94580078 C502.89625706 524.34581632 502.28377931 526.74889894 501.671875 529.15234375 C501.24009923 530.83086196 500.80781622 532.50924978 500.375 534.1875 C500.17737061 534.96424072 499.97974121 535.74098145 499.77612305 536.54125977 C498.64587599 540.87364064 497.31798631 545.03951626 495.69848633 549.21337891 C494.40412479 552.57116119 493.24728662 555.97737466 492.0625 559.375 C487.63069157 571.96171977 482.74729626 584.1736604 476.9375 596.1875 C476.64536621 596.79899902 476.35323242 597.41049805 476.05224609 598.04052734 C465.05966178 620.99080967 451.95023332 642.66399506 436.9375 663.1875 C435.87789062 664.64736328 435.87789062 664.64736328 434.796875 666.13671875 C425.89400661 678.22153825 416.30633551 689.81864743 406.109375 700.83203125 C404.11126183 702.99904967 402.17300156 705.20392518 400.25 707.4375 C397.45473848 710.66229344 394.49196064 713.66222192 391.44140625 716.64453125 C389.79842288 718.2618655 389.79842288 718.2618655 388.125 720.625 C387.5371875 721.3984375 387.5371875 721.3984375 386.9375 722.1875 C386.2775 722.1875 385.6175 722.1875 384.9375 722.1875 C384.67453125 722.78949219 384.4115625 723.39148438 384.140625 724.01171875 C382.87170534 726.3064858 381.73619084 727.39888351 379.6875 729 C377.18239191 731.05573818 375.05205554 733.1175568 373 735.625 C370.29584954 738.8943036 367.30223498 741.56241085 364.07421875 744.3046875 C361.76001743 746.34389232 359.60154323 748.48993458 357.4375 750.6875 C354.05384329 754.11178381 350.58278375 757.35112994 346.92578125 760.48046875 C345.5118356 761.69440637 344.11503874 762.92844298 342.73046875 764.17578125 C342.01503906 764.81902344 341.29960938 765.46226562 340.5625 766.125 C339.59183594 767.00478516 339.59183594 767.00478516 338.6015625 767.90234375 C336.9375 769.1875 336.9375 769.1875 334.9375 769.1875 C334.6075 770.1775 334.2775 771.1675 333.9375 772.1875 C331.890625 774.0625 331.890625 774.0625 329.1875 776.1875 C328.19363281 776.98027344 327.19976563 777.77304687 326.17578125 778.58984375 C325.64678223 779.01120605 325.1177832 779.43256836 324.57275391 779.86669922 C321.79625135 782.10929087 319.08929845 784.43286699 316.375 786.75 C311.88562138 790.56626619 307.34712393 794.30362015 302.7265625 797.9609375 C300.52044056 799.72212728 298.33072106 801.4986641 296.1484375 803.2890625 C288.56608262 809.50502418 280.93496849 815.51097516 272.9375 821.1875 C271.86242187 822.03441406 271.86242187 822.03441406 270.765625 822.8984375 C268.9375 824.1875 268.9375 824.1875 266.9375 824.1875 C266.9375 824.8475 266.9375 825.5075 266.9375 826.1875 C265.19921875 827.640625 265.19921875 827.640625 262.625 829.4375 C261.62339844 830.14777344 260.62179687 830.85804688 259.58984375 831.58984375 C259.0160498 831.9957373 258.44225586 832.40163086 257.85107422 832.81982422 C254.0977031 835.50244543 250.39730503 838.25763137 246.6875 841 C245.03663807 842.21769163 243.38559659 843.43513987 241.734375 844.65234375 C240.92677734 845.24772949 240.11917969 845.84311523 239.28710938 846.45654297 C226.09220666 856.1772267 212.84041599 865.81794414 199.55151367 875.40966797 C195.50832645 878.32854871 191.46828335 881.25149731 187.4375 884.1875 C185.60428807 885.52100025 183.77093834 886.85431106 181.9375 888.1875 C181.29377441 888.65623535 180.65004883 889.1249707 179.98681641 889.60791016 C161.9485405 902.73297336 143.63858246 915.46397651 124.76953125 927.37109375 C121.52412795 929.45262828 118.32442204 931.59891563 115.125 933.75 C106.06651869 939.82984511 96.84614034 945.65602412 87.62304688 951.48193359 C85.81150971 952.63242438 84.00560819 953.79183084 82.20507812 954.95947266 C76.81408887 958.44410251 71.35983183 961.67006122 65.70117188 964.70019531 C61.95200475 966.71785663 58.25652557 968.82547899 54.55615234 970.9309082 C50.58925471 973.18714453 46.61263244 975.42598677 42.63574219 977.66455078 C41.00880473 978.58283126 39.38382647 979.50461297 37.76269531 980.43310547 C16.20566102 992.77580191 -9.17923586 1002.35136405 -34.31640625 996.98828125 C-46.08518177 993.55641926 -55.13919278 986.56734304 -61.94140625 976.37109375 C-74.82388517 952.64021153 -72.67248003 922.43318004 -66.0625 897.1875 C-65.14091326 893.42255137 -64.25565985 889.64969997 -63.375 885.875 C-63.03505005 884.47701172 -63.03505005 884.47701172 -62.68823242 883.05078125 C-61.42287778 877.63849453 -60.53796701 872.7475497 -61.0625 867.1875 C-67.62486081 858.91596719 -82.49053089 858.3284204 -92.1875 856.5625 C-94.6063691 856.11328837 -97.02466239 855.66115651 -99.44259644 855.2069397 C-100.9356981 854.92737061 -102.42941573 854.65106202 -103.92385864 854.37875366 C-108.05307977 853.6158788 -112.11275452 852.70557589 -116.17990112 851.66195679 C-118.90706182 850.97465164 -121.65369759 850.3964181 -124.40625 849.8203125 C-125.5617334 849.57667969 -126.7172168 849.33304688 -127.90771484 849.08203125 C-129.11379395 848.82808594 -130.31987305 848.57414063 -131.5625 848.3125 C-141.7876786 846.13631496 -151.96100148 843.8866576 -162.0625 841.1875 C-163.37371826 840.83921143 -163.37371826 840.83921143 -164.71142578 840.48388672 C-167.64241035 839.70291891 -170.57157147 838.91549605 -173.5 838.125 C-174.41249512 837.87943359 -175.32499023 837.63386719 -176.26513672 837.38085938 C-184.94159864 835.01209795 -193.38272998 832.12512554 -201.8125 829 C-202.61961426 828.70101807 -203.42672852 828.40203613 -204.25830078 828.09399414 C-206.86063738 827.12766148 -209.46160256 826.15769879 -212.0625 825.1875 C-213.40489746 824.68911621 -213.40489746 824.68911621 -214.77441406 824.18066406 C-225.40699758 820.2262091 -235.83296059 816.10867036 -246.0625 811.1875 C-247.32567118 810.60945568 -248.59006638 810.03408104 -249.85546875 809.4609375 C-268.32083418 801.04345631 -285.90626449 791.00110174 -303.0625 780.1875 C-303.66433105 779.81061035 -304.26616211 779.4337207 -304.88623047 779.04541016 C-336.86574452 758.98283295 -336.86574452 758.98283295 -349.0625 748.1875 C-349.0625 747.5275 -349.0625 746.8675 -349.0625 746.1875 C-349.784375 745.960625 -350.50625 745.73375 -351.25 745.5 C-354.62801517 743.92359292 -356.44567766 741.83506328 -359.0625 739.1875 C-360.83592141 737.70703316 -362.62802309 736.24867508 -364.4375 734.8125 C-368.41075478 731.60394971 -372.08937739 728.30120094 -375.625 724.62109375 C-377.14943982 723.03191305 -377.14943982 723.03191305 -379.5 721.375 C-380.2734375 720.7871875 -380.2734375 720.7871875 -381.0625 720.1875 C-381.0625 719.5275 -381.0625 718.8675 -381.0625 718.1875 C-381.61421875 717.960625 -382.1659375 717.73375 -382.734375 717.5 C-385.74942417 715.80024074 -387.87480369 713.63945184 -390.3125 711.1875 C-391.20453125 710.300625 -392.0965625 709.41375 -393.015625 708.5 C-395.0625 706.1875 -395.0625 706.1875 -395.0625 704.1875 C-396.0525 703.8575 -397.0425 703.5275 -398.0625 703.1875 C-399.5703125 701.69140625 -399.5703125 701.69140625 -401.1875 699.75 C-403.83349736 696.62240898 -406.53498382 693.57396468 -409.3125 690.5625 C-414.44749574 684.87638887 -419.10962074 678.857094 -423.79736328 672.80371094 C-425.51518773 670.60919186 -427.29128845 668.46403304 -429.0625 666.3125 C-437.89998696 655.26114156 -445.37794121 643.26191703 -452.65234375 631.1484375 C-454.10451516 628.7323494 -455.59461346 626.40064091 -457.17578125 624.0625 C-459.14377409 621.06365376 -460.73639543 618.03356809 -462.3125 614.8125 C-462.91772632 613.58191199 -463.52320549 612.35144831 -464.12890625 611.12109375 C-464.59901123 610.16178955 -464.59901123 610.16178955 -465.07861328 609.18310547 C-466.09187108 607.127927 -467.11977806 605.08069708 -468.15234375 603.03515625 C-471.62425216 596.15576826 -475.06738753 589.29129239 -478.0625 582.1875 C-478.60777344 580.91326172 -478.60777344 580.91326172 -479.1640625 579.61328125 C-480.48870855 576.4811343 -481.78120536 573.33764429 -483.0625 570.1875 C-483.3296582 569.53104492 -483.59681641 568.87458984 -483.87207031 568.19824219 C-495.19299346 540.21292017 -502.77608996 511.30343121 -506.69287109 481.35693359 C-506.96106469 479.14817688 -506.96106469 479.14817688 -508.0625 477.1875 C-510.62539288 461.59603474 -510.37621196 445.534486 -510.32324219 429.79125977 C-510.3124834 425.99414216 -510.32322589 422.19749438 -510.3359375 418.40039062 C-510.35726292 380.96742596 -503.13437313 345.58228139 -491.0625 310.1875 C-490.77310547 309.33172363 -490.48371094 308.47594727 -490.18554688 307.59423828 C-489.40308166 305.28892559 -488.61155072 302.98711179 -487.8125 300.6875 C-487.47992188 299.72831665 -487.47992188 299.72831665 -487.140625 298.74975586 C-485.36928738 293.77379962 -483.25968527 288.98545562 -481.0625 284.1875 C-480.5360791 283.03531982 -480.5360791 283.03531982 -479.99902344 281.85986328 C-467.7632728 255.30533208 -453.564633 229.65398087 -436.0625 206.1875 C-435.48709473 205.40987305 -434.91168945 204.63224609 -434.31884766 203.83105469 C-416.00728523 179.09131675 -416.00728523 179.09131675 -407.0625 170.1875 C-405.45025288 168.42402031 -403.84661328 166.6526466 -402.25 164.875 C-397.58879708 159.74382862 -392.76970738 154.78341005 -387.875 149.875 C-387.22233154 149.21781982 -386.56966309 148.56063965 -385.8972168 147.88354492 C-374.12221196 136.14410069 -374.12221196 136.14410069 -369.88989258 134.1784668 C-367.70875438 133.26494141 -367.70875438 133.26494141 -367.0625 130.1875 C-364.95175597 128.37032259 -362.84364481 126.67485649 -360.625 125 C-359.33562882 124.00821367 -358.04656767 123.01602416 -356.7578125 122.0234375 C-356.12391602 121.53842773 -355.49001953 121.05341797 -354.83691406 120.55371094 C-352.53039398 118.77780472 -350.26354107 116.95525598 -348 115.125 C-346.35541738 113.81093317 -344.70952643 112.49850249 -343.0625 111.1875 C-342.11503906 110.43082031 -341.16757812 109.67414063 -340.19140625 108.89453125 C-331.15643746 101.79965563 -321.68944306 95.44816669 -312.0625 89.1875 C-311.05058594 88.5275 -310.03867187 87.8675 -308.99609375 87.1875 C-306.36692183 85.49479915 -303.72015186 83.83509053 -301.0625 82.1875 C-300.06734375 81.56230469 -299.0721875 80.93710938 -298.046875 80.29296875 C-280.49599904 69.42200003 -261.94872738 59.51594771 -243.0625 51.1875 C-241.55935602 50.50639842 -240.05678708 49.82402682 -238.5546875 49.140625 C-236.97426245 48.42641 -235.39353702 47.71285928 -233.8125 47 C-233.10335449 46.67845947 -232.39420898 46.35691895 -231.66357422 46.02563477 C-226.85371398 43.88144678 -221.97991286 42.02386338 -217.02148438 40.25219727 C-213.89530631 39.12734062 -210.78713803 37.96071505 -207.6796875 36.78515625 C-195.24523689 32.10018794 -182.87805997 27.69506008 -170.0625 24.1875 C-168.44794922 23.70603516 -168.44794922 23.70603516 -166.80078125 23.21484375 C-156.01857394 20.00229224 -145.06189488 17.50057449 -134.11425781 14.92333984 C-131.13118441 14.20406119 -128.16465146 13.4338851 -125.1953125 12.66015625 C-118.3796637 10.94874028 -111.49694008 9.80302291 -104.5625 8.6875 C-103.22759271 8.47046671 -101.8927135 8.25326069 -100.55786133 8.03588867 C-97.92274536 7.60807464 -95.28702706 7.18466365 -92.65087891 6.76318359 C-89.61301162 6.27581857 -86.57775297 5.77561454 -83.54296875 5.26953125 C-56.00146021 0.77912764 -27.86151999 -0.0347671 0 0 Z M157.9375 311.1875 C156.35333954 313.25498523 156.35333954 313.25498523 155.1875 315.5 C154.78015625 316.21800781 154.3728125 316.93601562 153.953125 317.67578125 C151.72061665 323.19694613 151.79072586 329.14971159 151.80378723 335.02999878 C151.80152167 335.7891704 151.79925612 336.54834202 151.79692191 337.33051884 C151.79062397 339.85821972 151.79140855 342.3858664 151.79223633 344.91357422 C151.78924224 346.73249378 151.78583913 348.55141271 151.78205872 350.37033081 C151.77324063 355.30011884 151.77088154 360.2298895 151.77024293 365.15968466 C151.76953126 368.24214069 151.76739474 371.32459233 151.76474571 374.40704727 C151.75550002 385.16768931 151.75140991 395.92831897 151.75219727 406.68896484 C151.75279807 416.70856304 151.74224371 426.72810741 151.7264536 436.74769199 C151.71336609 445.36021931 151.70801387 453.97272905 151.70865268 462.58526623 C151.70890728 467.72467832 151.70607687 472.86404252 151.69547462 478.00344467 C151.6857731 482.83796517 151.68572856 487.6723922 151.69299126 492.50691605 C151.69403449 494.27695604 151.69168975 496.04700193 151.6856308 497.81703186 C151.20163787 513.97956879 151.20163787 513.97956879 157.9375 528.1875 C163.25329963 533.46532964 167.79471883 536.42799264 175.49617004 536.45492554 C176.60215042 536.46345551 177.7081308 536.47198547 178.84762573 536.48077393 C180.65325485 536.47941437 180.65325485 536.47941437 182.49536133 536.47802734 C183.77071243 536.48474457 185.04606354 536.49146179 186.36006165 536.49838257 C189.85194616 536.51601974 193.3437326 536.52073701 196.83565736 536.52201414 C199.0199162 536.52343775 201.20415026 536.52771135 203.38840294 536.53300858 C211.01619418 536.55150226 218.6439156 536.55968014 226.27172852 536.55810547 C233.369426 536.55690468 240.4668191 536.57799617 247.56443959 536.6095928 C253.66823875 536.63579183 259.77193872 536.64647123 265.87579364 536.64519465 C269.51684604 536.64468602 273.1576279 536.6503138 276.79862404 536.67155075 C280.86311077 536.69461124 284.92692075 536.6853902 288.99145508 536.67333984 C290.18913513 536.68457886 291.38681519 536.69581787 292.62078857 536.70739746 C300.57786362 536.64750036 305.98961723 535.5851552 312.1796875 530.2578125 C317.49783386 523.92183909 319.40349535 518.95491045 319.1796875 510.63671875 C318.4578087 503.33642833 314.09145704 498.06613882 308.9375 493.1875 C302.16811256 488.90482631 295.10329194 489.04250152 287.35205078 489.07397461 C286.40507828 489.07382858 285.45810577 489.07368256 284.48243713 489.0735321 C281.36587194 489.07422636 278.2493672 489.08199594 275.1328125 489.08984375 C272.96662427 489.09170966 270.80043563 489.09313275 268.63424683 489.09413147 C262.94281848 489.09794302 257.25141579 489.10776168 251.55999756 489.11883545 C244.72588634 489.13088098 237.89176651 489.13545829 231.05764771 489.14128876 C220.68424731 489.15097416 210.31090318 489.17014027 199.9375 489.1875 C199.9375 474.3375 199.9375 459.4875 199.9375 444.1875 C208.20941406 444.25710938 208.20941406 444.25710938 216.6484375 444.328125 C220.1575711 444.34858108 223.66663041 444.36783805 227.17578125 444.3828125 C232.73664764 444.40665523 238.29724871 444.43475597 243.85791016 444.48925781 C248.34481322 444.53295647 252.83143147 444.55668749 257.31853104 444.56700897 C259.02403873 444.57435748 260.72953215 444.58870675 262.43491745 444.61042023 C273.49510718 444.7455463 283.11967084 444.58415353 291.875 437 C296.23609403 432.18633961 297.99295697 426.61670568 298.3125 420.1875 C297.92136127 412.88624366 296.0403667 407.79157876 290.625 402.75 C284.8960787 397.80093186 279.31824039 396.88715042 271.91259766 396.96044922 C270.74085495 396.96001114 270.74085495 396.96001114 269.54544067 396.95956421 C266.98069897 396.96095008 264.41625303 396.97647602 261.8515625 396.9921875 C260.06651976 396.99592028 258.28147497 396.998766 256.49642944 397.00076294 C251.81107877 397.00837857 247.1258532 397.02800921 242.44055176 397.0501709 C236.81206345 397.07428242 231.18353317 397.08342017 225.55500793 397.09507751 C217.01575177 397.11443485 208.47676979 397.15277184 199.9375 397.1875 C199.9375 382.0075 199.9375 366.8275 199.9375 351.1875 C209.70794922 351.22230469 209.70794922 351.22230469 219.67578125 351.2578125 C223.81836339 351.2680394 227.96092983 351.27766792 232.10351562 351.28515625 C238.66938537 351.29708154 245.23519898 351.31114347 251.80102539 351.33837891 C257.09839173 351.36021355 262.39569781 351.37209094 267.6931057 351.37725449 C269.70756159 351.38093124 271.72201444 351.38811072 273.73644447 351.39896011 C293.00996774 352.40713111 293.00996774 352.40713111 309.34765625 343.9921875 C314.57537459 338.05802073 315.25688131 332.6806586 315.14453125 325 C314.65796818 318.39008657 312.26138567 313.22591858 307.22167969 308.83288574 C295.65269845 300.49928708 279.19803861 302.60599064 265.75 302.65625 C263.19897311 302.65355084 260.64794722 302.6496649 258.09692383 302.64465332 C252.76795642 302.63877832 247.43926731 302.64686776 242.11035156 302.66601562 C235.98387553 302.68777761 229.85793231 302.68072362 223.73146915 302.65871 C217.79354059 302.63824273 211.85577486 302.64057161 205.91781616 302.65223694 C203.41099979 302.65488932 200.90416965 302.65168739 198.39736938 302.64231873 C176.74360307 301.9153396 176.74360307 301.9153396 157.9375 311.1875 Z M-139.0625 313.0625 C-144.74599759 319.10121619 -146.21162704 323.98482793 -146.20967102 332.04924011 C-146.21334771 332.85878578 -146.2170244 333.66833145 -146.2208125 334.5024088 C-146.2318561 337.22451263 -146.23569433 339.94657829 -146.23950195 342.66870117 C-146.24576612 344.61673097 -146.25241287 346.56475958 -146.25941467 348.51278687 C-146.27682919 353.81255997 -146.28737779 359.11232405 -146.2956202 364.41211867 C-146.30076968 367.72302835 -146.30684545 371.03393522 -146.31313133 374.34484291 C-146.33218515 384.70320473 -146.34641558 395.06155942 -146.3547433 405.41993541 C-146.36451575 417.37806608 -146.39083476 429.33601165 -146.43124419 441.2940771 C-146.46140292 450.53580132 -146.47621197 459.77747249 -146.47952431 469.01924497 C-146.48187516 474.53936903 -146.49084019 480.05929539 -146.51598549 485.57936668 C-146.53926669 490.77421801 -146.54349914 495.96874146 -146.53322411 501.16363144 C-146.53272864 503.06794004 -146.53905216 504.97226479 -146.55278015 506.87652397 C-146.57050672 509.48168792 -146.56338948 512.08567619 -146.55024719 514.69084167 C-146.56121644 515.43979129 -146.57218568 516.18874092 -146.58348733 516.96038598 C-146.50504029 523.42632789 -144.36403708 528.56109387 -140.09765625 533.4296875 C-139.44667969 533.96851563 -138.79570312 534.50734375 -138.125 535.0625 C-137.47660156 535.61679687 -136.82820313 536.17109375 -136.16015625 536.7421875 C-130.2154329 540.83817938 -124.07291016 541.06046086 -117.0625 540.1875 C-113.68485092 538.96202612 -110.94728748 537.31250806 -108.0625 535.1875 C-107.134375 534.506875 -106.20625 533.82625 -105.25 533.125 C-97.91440196 523.27433978 -98.49175471 511.40011322 -98.56079102 499.72607422 C-98.55700115 497.88833199 -98.55149563 496.05059262 -98.54441833 494.21286011 C-98.53053555 489.25425661 -98.54158194 484.29600287 -98.55812955 479.33741903 C-98.57204953 474.13177354 -98.56551225 468.92614692 -98.56199646 463.7204895 C-98.55930029 454.9833619 -98.57272045 446.24637214 -98.59594727 437.50927734 C-98.62256987 427.42535999 -98.62429655 417.34167275 -98.6125589 407.25773227 C-98.60176052 397.53153422 -98.60798329 387.80541894 -98.62211418 378.07922745 C-98.62785443 373.9510819 -98.62780682 369.82299732 -98.62304878 365.69485092 C-98.61825812 360.83064384 -98.62846689 355.96668713 -98.65000343 351.10252762 C-98.65554247 349.32323806 -98.65606327 347.5439243 -98.65105057 345.76463318 C-98.55323025 328.33803614 -98.55323025 328.33803614 -107.24609375 313.80859375 C-109.72964726 311.59208901 -111.92422865 310.31727769 -115.0625 309.1875 C-115.70703125 308.93871094 -116.3515625 308.68992187 -117.015625 308.43359375 C-124.93981683 305.93946862 -132.23196122 308.79341327 -139.0625 313.0625 Z M-298.65625 317.42578125 C-303.33476831 323.28692502 -303.21184035 330.84068543 -303.19621277 338.03036499 C-303.19847833 338.80163841 -303.20074388 339.57291183 -303.20307809 340.36755717 C-303.20938899 342.94215637 -303.2085906 345.51670253 -303.20776367 348.09130859 C-303.21075696 349.94125944 -303.21415988 351.79120966 -303.21794128 353.64115906 C-303.22676773 358.65977924 -303.22911882 363.67838237 -303.22975707 368.69700956 C-303.23046829 371.83389303 -303.23260395 374.97077218 -303.23525429 378.10765457 C-303.24450287 389.05517095 -303.24858974 400.00267516 -303.24780273 410.95019531 C-303.24720191 421.14872388 -303.25775592 431.34719955 -303.2735464 441.54571474 C-303.28662837 450.30767419 -303.29198636 459.06961638 -303.29134732 467.83158553 C-303.29109255 473.06208317 -303.29393242 478.2925338 -303.30452538 483.5230217 C-303.3142175 488.44288601 -303.31427786 493.36265844 -303.30700874 498.28252602 C-303.30596433 500.08523633 -303.3083173 501.88795239 -303.3143692 503.69065285 C-303.32211233 506.15743182 -303.3174291 508.62389531 -303.30973816 511.09066772 C-303.31488172 511.7986615 -303.32002529 512.50665528 -303.32532471 513.23610342 C-303.26752171 521.66485656 -301.40421862 528.49402152 -295.6875 534.8125 C-288.80408885 541.04034819 -282.6713026 541.3372086 -273.79345703 541.34863281 C-272.40471375 541.35608017 -272.40471375 541.35608017 -270.98791504 541.36367798 C-267.93203991 541.37825612 -264.87621666 541.38509378 -261.8203125 541.390625 C-259.69188435 541.3963793 -257.56345621 541.402137 -255.43502808 541.40789795 C-250.97474934 541.41839505 -246.51448856 541.42424641 -242.05419922 541.42773438 C-236.34566047 541.4332214 -230.63735996 541.45725948 -224.92889595 541.48570633 C-220.53306386 541.50434934 -216.13728903 541.50953917 -211.74142075 541.51107025 C-209.63713145 541.5140927 -207.53284307 541.52210743 -205.42859268 541.53525543 C-202.48232219 541.55235316 -199.53663231 541.55042666 -196.59033203 541.54394531 C-195.29335892 541.55776749 -195.29335892 541.55776749 -193.97018433 541.5718689 C-186.09495181 541.51773316 -180.32325839 538.92124414 -174.0625 534.1875 C-174.0625 533.5275 -174.0625 532.8675 -174.0625 532.1875 C-173.4025 532.1875 -172.7425 532.1875 -172.0625 532.1875 C-168.2964493 524.46271693 -166.10345896 518.76179128 -168.5 510.1875 C-171.17113573 502.82806053 -175.31985675 499.01404078 -182.26026917 495.62687683 C-185.94915523 494.07606532 -189.17006898 493.79201772 -193.19116211 493.75512695 C-194.20218994 493.73983948 -194.20218994 493.73983948 -195.23364258 493.72424316 C-197.43579654 493.69432852 -199.63751407 493.68488093 -201.83984375 493.67578125 C-203.3768506 493.65891847 -204.91384379 493.64076609 -206.45082092 493.62138367 C-210.47681409 493.57405072 -214.50275186 493.54413379 -218.52893066 493.51794434 C-222.64504938 493.48805403 -226.76097757 493.44155299 -230.87695312 493.39648438 C-238.9387081 493.31064158 -247.00048075 493.24321227 -255.0625 493.1875 C-255.06488835 492.35150583 -255.06727671 491.51551167 -255.06973743 490.65418434 C-255.12894005 470.28830333 -255.20452383 449.92254014 -255.29821491 429.55678749 C-255.34313099 419.70795387 -255.38255531 409.85915606 -255.40893555 400.01025391 C-255.43194955 391.42336445 -255.46538555 382.83658876 -255.51120156 374.2497896 C-255.53508792 369.70548668 -255.55384672 365.16129612 -255.56011391 360.61693192 C-255.56618556 356.33396116 -255.58626012 352.0512777 -255.61677551 347.76841354 C-255.62552251 346.20200347 -255.62928528 344.6355558 -255.62750816 343.06912231 C-255.44086169 328.06438527 -255.44086169 328.06438527 -262.3125 315.25 C-268.43280461 309.85497057 -274.12583029 308.66056204 -282.1328125 308.91015625 C-289.34211552 309.59263694 -293.75588829 312.11334367 -298.65625 317.42578125 Z M77.8125 314.375 C71.56999032 320.76306042 71.49352452 330.31738957 71.50512695 338.67407227 C71.4949353 339.78729355 71.48474365 340.90051483 71.47424316 342.04747009 C71.4442292 345.69966745 71.43486471 349.35160201 71.42578125 353.00390625 C71.40892602 355.54696008 71.39077465 358.09000562 71.37138367 360.63304138 C71.32880658 366.62511644 71.2992292 372.61711716 71.27606028 378.6092872 C71.24892883 385.4365316 71.20502259 392.26363674 71.15977156 399.09078133 C71.06713739 413.12294506 70.99535999 427.15515284 70.9375 441.1875 C68.45925541 438.74002717 66.21233382 436.36889826 64.1953125 433.52734375 C63.69346436 432.82552979 63.19161621 432.12371582 62.67456055 431.40063477 C61.87659058 430.27419556 61.87659058 430.27419556 61.0625 429.125 C59.90579613 427.5072057 58.74821378 425.89003921 57.58984375 424.2734375 C56.99155762 423.43780273 56.39327148 422.60216797 55.77685547 421.74121094 C52.75993944 417.55260705 49.69313718 413.40115558 46.625 409.25 C45.44651722 407.65371771 44.26812848 406.05736598 43.08984375 404.4609375 C42.54440918 403.72198242 41.99897461 402.98302734 41.43701172 402.22167969 C36.10320995 394.98605019 30.85919592 387.68791666 25.64086914 380.36889648 C22.51242082 375.98380792 19.35328792 371.62207962 16.1796875 367.26953125 C13.36065879 363.39459457 10.55489981 359.51017087 7.75 355.625 C7.19973145 354.86300293 6.64946289 354.10100586 6.08251953 353.31591797 C3.19367475 349.31488879 0.30669543 345.31252556 -2.578125 341.30859375 C-3.15151611 340.51332275 -3.72490723 339.71805176 -4.31567383 338.89868164 C-5.4020848 337.39181592 -6.48790396 335.88452326 -7.57299805 334.37670898 C-9.06386102 332.30946538 -10.56082322 330.24690032 -12.0625 328.1875 C-12.59101563 327.46191895 -13.11953125 326.73633789 -13.6640625 325.98876953 C-14.18613281 325.28091309 -14.70820313 324.57305664 -15.24609375 323.84375 C-15.71200928 323.21017578 -16.1779248 322.57660156 -16.65795898 321.92382812 C-21.39800428 316.06406763 -26.69839039 314.2944243 -34.0703125 313.34765625 C-41.40715738 312.95495306 -46.64749341 314.83804742 -52.3359375 319.47265625 C-57.54885283 324.6501898 -59.16573521 330.40893904 -59.2009055 337.59173614 C-59.1993569 338.30680821 -59.1978083 339.02188029 -59.19621277 339.75862122 C-59.19847833 340.5248078 -59.20074388 341.29099438 -59.20307809 342.08039874 C-59.20941203 344.64972448 -59.20858911 347.21899739 -59.20776367 349.78833008 C-59.21075556 351.62975635 -59.21415816 353.47118199 -59.21794128 355.31260681 C-59.22678296 360.31681594 -59.22911948 365.32100798 -59.22975707 370.32522416 C-59.23070635 374.50260368 -59.23438491 378.67997922 -59.23792917 382.8573572 C-59.24607455 392.71390751 -59.24851334 402.57044867 -59.24780273 412.42700195 C-59.24720207 422.59369868 -59.25775144 432.76034232 -59.2735464 442.92702562 C-59.28662408 451.65580839 -59.29198653 460.38457381 -59.29134732 469.11336631 C-59.29109238 474.32653556 -59.29394146 479.53965766 -59.30452538 484.75281715 C-59.31421003 489.65705721 -59.31428298 494.56120507 -59.30700874 499.46544838 C-59.30596333 501.26373937 -59.30832324 503.0620361 -59.3143692 504.86031723 C-59.32209828 507.31879557 -59.31743829 509.77695625 -59.30973816 512.23542786 C-59.31488172 512.94380777 -59.32002529 513.65218768 -59.32532471 514.38203365 C-59.26271508 523.45394351 -56.42655552 529.87221119 -50.0625 536.1875 C-43.81537972 540.6634061 -36.52888735 541.35443206 -29.0625 540.1875 C-25.73399157 538.93990457 -22.78802389 537.48574461 -20.0625 535.1875 C-19.7325 534.1975 -19.4025 533.2075 -19.0625 532.1875 C-18.0725 531.8575 -17.0825 531.5275 -16.0625 531.1875 C-11.80980847 524.98495268 -11.47984422 518.34761529 -11.51660156 511.06811523 C-11.50626389 509.99390823 -11.49592621 508.91970123 -11.48527527 507.8129425 C-11.45596541 504.29050442 -11.45435054 500.76864392 -11.453125 497.24609375 C-11.43813545 494.79271863 -11.42140668 492.33935357 -11.40301514 489.88600159 C-11.35941692 483.44989546 -11.339359 477.01392546 -11.32427979 470.57769775 C-11.30468173 464.00158668 -11.26271466 457.42562201 -11.22265625 450.84960938 C-11.14743551 437.9622893 -11.09633422 425.07499182 -11.0625 412.1875 C-10.4025 412.1875 -9.7425 412.1875 -9.0625 412.1875 C-8.84078125 412.86554688 -8.6190625 413.54359375 -8.390625 414.2421875 C-6.68078323 418.03401306 -4.34924899 421.03535626 -1.8125 424.3125 C-0.7257494 425.73896424 0.36015247 427.16607539 1.4453125 428.59375 C2.01540039 429.34140625 2.58548828 430.0890625 3.17285156 430.859375 C6.17249245 434.81684256 9.11870368 438.81340329 12.0625 442.8125 C12.64765381 443.6072876 13.23280762 444.4020752 13.83569336 445.22094727 C17.50190052 450.21053579 21.14436932 455.21644933 24.75 460.25 C25.16459473 460.82766113 25.57918945 461.40532227 26.00634766 462.00048828 C27.4457766 464.02038192 28.82637233 465.96524466 29.9375 468.1875 C30.5975 468.1875 31.2575 468.1875 31.9375 468.1875 C32.15148437 468.85523438 32.36546875 469.52296875 32.5859375 470.2109375 C34.39073775 474.185671 36.90208485 477.37088427 39.5625 480.8125 C40.65425392 482.24563071 41.74539855 483.67922579 42.8359375 485.11328125 C43.36799805 485.81018066 43.90005859 486.50708008 44.44824219 487.22509766 C47.68579713 491.49123973 50.80064975 495.84720406 53.9375 500.1875 C55.29153233 502.04176477 56.64570052 503.89593034 58 505.75 C60.4827108 509.15830396 62.91822045 512.59163573 65.3125 516.0625 C66.51521494 517.77479349 67.72408915 519.48276942 68.9375 521.1875 C69.31664551 521.7222998 69.69579102 522.25709961 70.08642578 522.80810547 C74.95884781 529.6186644 79.27473006 535.35611503 86.9375 539.1875 C87.5975 539.5175 88.2575 539.8475 88.9375 540.1875 C95.99028806 540.88678493 102.32068866 541.19827296 108.15625 536.796875 C114.47633337 531.08662424 117.7604355 526.85140323 118.9375 518.1875 C119.2312454 512.14160782 119.21128633 506.10258104 119.19628906 500.05078125 C119.19900211 498.21186179 119.2025648 496.37294343 119.20690918 494.5340271 C119.21599815 489.55888052 119.21250335 484.58381724 119.20615101 479.60866928 C119.20107292 474.39186129 119.20578749 469.17506024 119.20892334 463.95825195 C119.21255771 455.19904302 119.20777776 446.43986786 119.19824219 437.68066406 C119.18735867 427.5667249 119.19088462 417.45286639 119.201895 407.33892918 C119.21098293 398.64143212 119.21224578 389.94395928 119.20701766 381.24645901 C119.20390625 376.05789812 119.20346581 370.86937508 119.21009064 365.68081665 C119.21588539 360.80193956 119.2118283 355.92316603 119.20030212 351.04430008 C119.19766691 349.25813595 119.19840108 347.47196305 119.20282745 345.68580246 C119.57771289 327.99382151 119.57771289 327.99382151 110.9375 313.1875 C108.72923255 311.4071504 106.56647968 310.23909187 103.9375 309.1875 C103.28136719 308.91679687 102.62523437 308.64609375 101.94921875 308.3671875 C93.65702624 305.72945167 84.177824 308.60305366 77.8125 314.375 Z " fill="#98A0AD" transform="translate(510.0625,12.8125)"/>
</svg>
