<svg xmlns="http://www.w3.org/2000/svg" width="1024" height="1024" viewBox="0 0 1024 1024" version="1.1"><path d="" stroke="none" fill="#747a84" fill-rule="evenodd"/><path d="M 459 63 C 459 63.571, 455.887 64.019, 451.750 64.044 C 447.762 64.068, 442.700 64.736, 440.500 65.529 C 438.300 66.321, 434.603 66.977, 432.285 66.985 C 429.967 66.993, 426.142 67.631, 423.785 68.402 C 421.428 69.173, 416.920 70.104, 413.766 70.472 C 410.612 70.839, 407.810 71.499, 407.538 71.938 C 407.267 72.377, 404.684 73.050, 401.797 73.432 C 398.911 73.815, 396.089 74.498, 395.525 74.949 C 394.961 75.400, 392.475 76.247, 390 76.832 C 380.545 79.065, 376.411 80.291, 373.846 81.622 C 372.386 82.380, 370.109 83, 368.787 83 C 367.464 83, 365.509 83.661, 364.441 84.468 C 363.374 85.276, 361.574 85.951, 360.441 85.968 C 359.309 85.986, 357.509 86.661, 356.441 87.468 C 355.374 88.276, 353.574 88.951, 352.441 88.968 C 351.309 88.986, 349.509 89.661, 348.441 90.468 C 347.374 91.276, 345.669 91.951, 344.654 91.968 C 343.639 91.986, 341.614 92.656, 340.154 93.459 C 338.694 94.261, 335.250 95.870, 332.500 97.033 C 325.805 99.866, 314.860 104.951, 313 106.092 C 312.175 106.599, 310.825 107.267, 310 107.579 C 309.175 107.890, 307.825 108.565, 307 109.079 C 306.175 109.592, 304.825 110.267, 304 110.579 C 303.175 110.890, 301.825 111.565, 301 112.079 C 300.175 112.592, 298.825 113.302, 298 113.655 C 297.175 114.008, 292.838 116.480, 288.361 119.149 C 283.885 121.817, 279.976 124, 279.674 124 C 279.373 124, 276.169 126.025, 272.553 128.500 C 268.938 130.975, 265.742 133, 265.450 133 C 264.644 133, 258.547 137.395, 258.167 138.250 C 257.983 138.662, 257.182 139, 256.385 139 C 255.589 139, 254.678 139.675, 254.362 140.500 C 254.045 141.325, 253.364 142, 252.849 142 C 251.935 142, 240.247 150.301, 236.750 153.433 C 235.787 154.295, 234.550 155, 234 155 C 233.450 155, 233 155.374, 233 155.830 C 233 156.287, 231.088 158.060, 228.750 159.769 C 226.412 161.479, 223.150 164.056, 221.500 165.496 C 219.850 166.935, 215.575 170.669, 212 173.793 C 196.223 187.579, 168.701 216.538, 159.769 228.750 C 158.060 231.088, 156.287 233, 155.830 233 C 155.374 233, 155 233.675, 155 234.500 C 155 235.325, 154.587 236, 154.082 236 C 153.576 236, 152.247 237.483, 151.127 239.295 C 150.007 241.107, 148.283 243.540, 147.295 244.702 C 146.308 245.863, 144.825 247.808, 144 249.022 C 143.175 250.237, 141.713 252.263, 140.750 253.523 C 139.787 254.784, 139 256.307, 139 256.908 C 139 257.508, 138.539 258, 137.975 258 C 137.412 258, 136.492 259.012, 135.932 260.250 C 134.532 263.345, 129.299 271.780, 128.023 273 C 127.225 273.763, 125.127 277.210, 123.763 280 C 123.091 281.375, 122.297 282.725, 122 283 C 121.703 283.275, 120.888 284.625, 120.189 286 C 119.491 287.375, 117.372 291.200, 115.481 294.500 C 113.589 297.800, 111.775 301.175, 111.449 302 C 111.123 302.825, 110.435 304.175, 109.921 305 C 109.408 305.825, 108.733 307.175, 108.421 308 C 108.110 308.825, 107.435 310.175, 106.921 311 C 106.408 311.825, 105.733 313.175, 105.421 314 C 105.110 314.825, 104.435 316.175, 103.921 317 C 103.408 317.825, 102.729 319.175, 102.413 320 C 101.889 321.368, 100.938 323.532, 96.260 334 C 95.400 335.925, 94.090 338.694, 93.348 340.154 C 92.607 341.614, 91.986 343.639, 91.968 344.654 C 91.951 345.669, 91.276 347.374, 90.468 348.441 C 89.661 349.509, 89 351.228, 89 352.263 C 89 353.297, 88.325 354.818, 87.500 355.643 C 86.675 356.468, 86 358.199, 86 359.490 C 86 360.782, 85.375 363.112, 84.611 364.669 C 81.319 371.379, 73.784 397.791, 70.537 414 C 69.821 417.575, 68.938 421.213, 68.575 422.084 C 68.211 422.955, 67.522 426.780, 67.044 430.584 C 66.565 434.388, 65.696 439.300, 65.111 441.500 C 64.526 443.700, 64.037 448.313, 64.024 451.750 C 64.011 455.234, 63.557 458, 63 458 C 62.346 458, 62 476.667, 62 512 C 62 547.333, 62.346 566, 63 566 C 63.557 566, 64.011 568.766, 64.024 572.250 C 64.037 575.688, 64.528 580.300, 65.115 582.500 C 65.703 584.700, 66.554 589.744, 67.007 593.708 C 67.460 597.672, 68.160 601.449, 68.562 602.101 C 68.965 602.752, 69.867 606.259, 70.567 609.893 C 72.247 618.617, 76.637 635.886, 78.919 642.750 C 79.514 644.538, 80.490 647.462, 81.088 649.250 C 81.686 651.038, 82.551 654.018, 83.010 655.872 C 83.469 657.727, 84.330 659.730, 84.922 660.322 C 85.515 660.915, 86 662.605, 86 664.078 C 86 665.550, 86.675 667.315, 87.500 668 C 88.325 668.685, 89 670.229, 89 671.431 C 89 672.634, 89.661 674.491, 90.468 675.559 C 91.276 676.626, 91.951 678.331, 91.968 679.346 C 91.986 680.361, 92.619 682.386, 93.376 683.846 C 94.133 685.306, 95.747 688.750, 96.964 691.500 C 101.579 701.933, 102.317 703.541, 103.153 705 C 103.626 705.825, 104.267 707.175, 104.579 708 C 104.890 708.825, 105.565 710.175, 106.079 711 C 106.592 711.825, 107.267 713.175, 107.579 714 C 107.890 714.825, 108.565 716.175, 109.079 717 C 109.592 717.825, 110.235 719.063, 110.506 719.750 C 110.778 720.438, 111.226 721.563, 111.503 722.250 C 111.779 722.938, 113.599 726.200, 115.548 729.500 C 117.496 732.800, 119.619 736.737, 120.265 738.250 C 120.910 739.762, 121.790 741, 122.219 741 C 122.649 741, 123 741.502, 123 742.116 C 123 742.729, 125.138 746.433, 127.750 750.346 C 132.809 757.924, 134.212 760.170, 136.121 763.750 C 136.781 764.988, 137.699 766, 138.161 766 C 138.622 766, 139 766.466, 139 767.035 C 139 768.009, 150.018 783.442, 153.431 787.250 C 154.294 788.212, 155 789.450, 155 790 C 155 790.550, 155.374 791, 155.830 791 C 156.287 791, 158.060 792.912, 159.769 795.250 C 161.479 797.587, 164.056 800.850, 165.496 802.500 C 177.166 815.874, 180.881 819.888, 191 830.060 C 201.014 840.127, 210.736 849.200, 221.500 858.524 C 223.150 859.953, 226.412 862.521, 228.750 864.231 C 231.087 865.940, 233 867.713, 233 868.170 C 233 868.626, 233.525 869, 234.166 869 C 234.807 869, 236.045 869.688, 236.916 870.528 C 239.749 873.261, 251.886 882, 252.849 882 C 253.364 882, 254.045 882.675, 254.362 883.500 C 254.678 884.325, 255.626 885, 256.469 885 C 257.311 885, 258 885.378, 258 885.839 C 258 886.301, 259.012 887.219, 260.250 887.879 C 263.283 889.497, 265.434 890.825, 272.500 895.442 C 275.800 897.598, 280.525 900.478, 283 901.841 C 285.475 903.205, 289.300 905.356, 291.500 906.623 C 293.700 907.889, 297.750 910.086, 300.500 911.504 C 306.797 914.752, 308.026 915.409, 310.500 916.849 C 311.600 917.489, 313.175 918.284, 314 918.616 C 314.825 918.948, 318.200 920.486, 321.500 922.035 C 324.800 923.584, 329.750 925.803, 332.500 926.967 C 335.250 928.130, 338.694 929.739, 340.154 930.541 C 341.614 931.344, 343.639 932.014, 344.654 932.032 C 345.669 932.049, 347.374 932.724, 348.441 933.532 C 349.509 934.339, 351.309 935.014, 352.441 935.032 C 353.574 935.049, 355.374 935.724, 356.441 936.532 C 357.509 937.339, 359.591 938, 361.069 938 C 362.546 938, 364.315 938.675, 365 939.500 C 365.685 940.325, 367.358 941, 368.718 941 C 370.078 941, 372.386 941.620, 373.846 942.378 C 376.323 943.664, 379.600 944.646, 389.500 947.073 C 391.700 947.612, 394.175 948.349, 395 948.710 C 396.727 949.465, 405.538 951.523, 415.107 953.406 C 418.741 954.121, 422.248 955.035, 422.899 955.438 C 423.551 955.840, 427.328 956.540, 431.292 956.993 C 435.256 957.446, 440.300 958.297, 442.500 958.885 C 444.700 959.472, 449.313 959.963, 452.750 959.976 C 456.234 959.989, 459 960.443, 459 961 C 459 961.654, 477.333 962, 512 962 C 546.667 962, 565 961.654, 565 961 C 565 960.443, 567.766 959.989, 571.250 959.976 C 574.688 959.963, 579.300 959.472, 581.500 958.885 C 583.700 958.297, 588.744 957.446, 592.708 956.993 C 596.672 956.540, 600.449 955.840, 601.101 955.438 C 601.752 955.035, 605.259 954.121, 608.893 953.406 C 618.462 951.523, 627.273 949.465, 629 948.710 C 629.825 948.349, 632.300 947.612, 634.500 947.073 C 644.400 944.646, 647.677 943.664, 650.154 942.378 C 651.614 941.620, 653.922 941, 655.282 941 C 656.642 941, 658.315 940.325, 659 939.500 C 659.685 938.675, 661.454 938, 662.931 938 C 664.409 938, 666.491 937.339, 667.559 936.532 C 668.626 935.724, 670.426 935.049, 671.559 935.032 C 672.691 935.014, 674.491 934.339, 675.559 933.532 C 676.626 932.724, 678.331 932.049, 679.346 932.032 C 680.361 932.014, 682.386 931.344, 683.846 930.541 C 685.306 929.739, 688.750 928.130, 691.500 926.967 C 698.195 924.134, 709.140 919.049, 711 917.908 C 711.825 917.401, 713.175 916.733, 714 916.421 C 714.825 916.110, 716.175 915.457, 717 914.969 C 717.825 914.482, 720.750 912.923, 723.500 911.504 C 726.250 910.086, 730.300 907.889, 732.500 906.623 C 734.700 905.356, 738.525 903.205, 741 901.841 C 743.475 900.478, 748.200 897.598, 751.500 895.442 C 758.566 890.825, 760.717 889.497, 763.750 887.879 C 764.987 887.219, 766 886.301, 766 885.839 C 766 885.378, 766.689 885, 767.531 885 C 768.374 885, 769.322 884.325, 769.638 883.500 C 769.955 882.675, 770.636 882, 771.151 882 C 772.114 882, 784.251 873.261, 787.084 870.528 C 787.955 869.688, 789.193 869, 789.834 869 C 790.475 869, 791 868.626, 791 868.170 C 791 867.713, 792.913 865.940, 795.250 864.231 C 797.587 862.521, 800.850 859.953, 802.500 858.524 C 822.920 840.835, 840.835 822.920, 858.524 802.500 C 859.953 800.850, 862.521 797.587, 864.231 795.250 C 865.940 792.913, 867.713 791, 868.170 791 C 868.626 791, 869 790.550, 869 790 C 869 789.450, 869.706 788.213, 870.569 787.250 C 873.982 783.442, 885 768.009, 885 767.035 C 885 766.466, 885.378 766, 885.839 766 C 886.301 766, 887.219 764.988, 887.879 763.750 C 889.788 760.170, 891.191 757.924, 896.250 750.346 C 898.862 746.433, 901 742.729, 901 742.116 C 901 741.502, 901.351 741, 901.781 741 C 902.210 741, 903.090 739.763, 903.735 738.250 C 904.381 736.737, 906.504 732.800, 908.452 729.500 C 910.401 726.200, 912.253 722.825, 912.570 722 C 912.886 721.175, 913.565 719.825, 914.079 719 C 914.592 718.175, 915.267 716.825, 915.579 716 C 915.890 715.175, 916.565 713.825, 917.079 713 C 917.592 712.175, 918.267 710.825, 918.579 710 C 918.890 709.175, 919.565 707.825, 920.079 707 C 920.592 706.175, 921.271 704.825, 921.587 704 C 922.111 702.632, 923.062 700.468, 927.740 690 C 928.600 688.075, 929.910 685.306, 930.652 683.846 C 931.393 682.386, 932.014 680.361, 932.032 679.346 C 932.049 678.331, 932.724 676.626, 933.532 675.559 C 934.339 674.491, 935 672.634, 935 671.431 C 935 670.229, 935.675 668.685, 936.500 668 C 937.325 667.315, 938.014 665.573, 938.032 664.128 C 938.049 662.682, 938.724 660.626, 939.532 659.559 C 940.339 658.491, 941.014 656.466, 941.032 655.059 C 941.049 653.651, 941.724 651.626, 942.532 650.559 C 943.339 649.491, 944 647.549, 944 646.243 C 944 644.937, 944.510 642.916, 945.132 641.753 C 945.755 640.589, 946.904 637.131, 947.685 634.068 C 948.465 631.006, 949.792 625.800, 950.633 622.500 C 951.473 619.200, 952.747 613.575, 953.463 610 C 954.179 606.425, 955.062 602.787, 955.425 601.916 C 955.789 601.045, 956.478 597.220, 956.956 593.416 C 957.435 589.612, 958.304 584.700, 958.889 582.500 C 959.474 580.300, 959.963 575.688, 959.976 572.250 C 959.989 568.766, 960.443 566, 961 566 C 961.654 566, 962 547.333, 962 512 C 962 476.667, 961.654 458, 961 458 C 960.443 458, 959.989 455.234, 959.976 451.750 C 959.963 448.313, 959.472 443.700, 958.885 441.500 C 958.297 439.300, 957.446 434.256, 956.993 430.292 C 956.540 426.328, 955.840 422.551, 955.438 421.899 C 955.035 421.248, 954.133 417.741, 953.433 414.107 C 950.451 398.619, 942.755 371.530, 939.389 364.669 C 938.625 363.112, 938 360.782, 938 359.490 C 938 358.199, 937.325 356.468, 936.500 355.643 C 935.675 354.818, 935 353.297, 935 352.263 C 935 351.228, 934.339 349.509, 933.532 348.441 C 932.724 347.374, 932.049 345.669, 932.032 344.654 C 932.014 343.639, 931.381 341.614, 930.624 340.154 C 929.867 338.694, 928.253 335.250, 927.036 332.500 C 922.421 322.067, 921.683 320.459, 920.847 319 C 920.374 318.175, 919.733 316.825, 919.421 316 C 919.110 315.175, 918.435 313.825, 917.921 313 C 917.408 312.175, 916.733 310.825, 916.421 310 C 916.110 309.175, 915.435 307.825, 914.921 307 C 914.408 306.175, 913.722 304.825, 913.398 304 C 912.239 301.053, 911.915 300.426, 908.490 294.500 C 906.583 291.200, 904.469 287.262, 903.792 285.750 C 903.115 284.238, 902.210 283, 901.781 283 C 901.351 283, 901 282.498, 901 281.884 C 901 281.271, 898.862 277.567, 896.250 273.654 C 890.667 265.291, 889.437 263.275, 888.068 260.250 C 887.508 259.012, 886.588 258, 886.025 258 C 885.461 258, 885 257.523, 885 256.940 C 885 256.061, 880.596 249.606, 877.159 245.447 C 876.681 244.868, 875.039 242.505, 873.512 240.197 C 871.984 237.889, 870.344 236, 869.867 236 C 869.390 236, 869 235.325, 869 234.500 C 869 233.675, 868.626 233, 868.170 233 C 867.713 233, 865.940 231.088, 864.231 228.750 C 862.521 226.412, 859.944 223.150, 858.504 221.500 C 857.065 219.850, 853.331 215.575, 850.207 212 C 842.886 203.622, 820.378 181.114, 812 173.793 C 808.425 170.669, 804.150 166.935, 802.500 165.496 C 800.850 164.056, 797.587 161.479, 795.250 159.769 C 792.913 158.060, 791 156.287, 791 155.830 C 791 155.374, 790.550 155, 790 155 C 789.450 155, 788.212 154.295, 787.250 153.433 C 783.753 150.301, 772.065 142, 771.151 142 C 770.636 142, 769.955 141.325, 769.638 140.500 C 769.322 139.675, 768.411 139, 767.615 139 C 766.818 139, 766.017 138.662, 765.833 138.250 C 765.453 137.395, 759.356 133, 758.550 133 C 758.258 133, 755.062 130.975, 751.447 128.500 C 747.831 126.025, 744.627 124, 744.326 124 C 743.866 124, 729.961 116.032, 725 112.926 C 724.175 112.410, 722.825 111.733, 722 111.421 C 721.175 111.110, 719.825 110.435, 719 109.921 C 718.175 109.408, 716.825 108.733, 716 108.421 C 715.175 108.110, 713.825 107.435, 713 106.921 C 712.175 106.408, 710.825 105.716, 710 105.384 C 709.175 105.052, 705.800 103.514, 702.500 101.965 C 699.200 100.416, 694.250 98.197, 691.500 97.033 C 688.750 95.870, 685.306 94.261, 683.846 93.459 C 682.386 92.656, 680.361 91.986, 679.346 91.968 C 678.331 91.951, 676.626 91.276, 675.559 90.468 C 674.491 89.661, 672.691 88.986, 671.559 88.968 C 670.426 88.951, 668.626 88.276, 667.559 87.468 C 666.491 86.661, 664.691 85.986, 663.559 85.968 C 662.426 85.951, 660.626 85.276, 659.559 84.468 C 658.491 83.661, 656.536 83, 655.213 83 C 653.891 83, 651.614 82.380, 650.154 81.622 C 647.589 80.291, 643.455 79.065, 634 76.832 C 631.525 76.247, 629.039 75.400, 628.475 74.949 C 627.911 74.498, 625.089 73.815, 622.203 73.432 C 619.316 73.050, 616.733 72.377, 616.462 71.938 C 616.190 71.499, 613.388 70.839, 610.234 70.472 C 607.080 70.104, 602.572 69.173, 600.215 68.402 C 597.858 67.631, 594.033 66.993, 591.715 66.985 C 589.397 66.977, 585.700 66.321, 583.500 65.529 C 581.300 64.736, 576.237 64.068, 572.250 64.044 C 568.113 64.019, 565 63.571, 565 63 C 565 62.346, 546.667 62, 512 62 C 477.333 62, 459 62.346, 459 63 M 484 219.036 C 467.931 220.185, 435.040 226.791, 426.349 230.614 C 424.616 231.376, 422.280 232, 421.158 232 C 420.036 232, 418.861 232.415, 418.548 232.923 C 418.234 233.431, 416.522 234.166, 414.743 234.557 C 411.412 235.288, 406.502 237.219, 401.846 239.627 C 400.386 240.382, 398.473 241, 397.596 241 C 396.718 241, 396 241.340, 396 241.756 C 396 242.172, 393.642 243.593, 390.761 244.915 C 385.755 247.212, 369.668 256.408, 367.523 258.200 C 366.960 258.670, 362.225 262.216, 357 266.080 C 346.095 274.145, 326.737 293.347, 319.528 303.250 C 316.825 306.962, 314.251 310, 313.807 310 C 313.363 310, 313 310.468, 313 311.040 C 313 311.932, 309.506 317.494, 308 319 C 307.725 319.275, 306.961 320.400, 306.302 321.500 C 305.643 322.600, 303.280 326.504, 301.052 330.175 C 298.823 333.846, 297 337.278, 297 337.802 C 297 338.326, 296.325 339.315, 295.500 340 C 294.675 340.685, 294 342.035, 294 343 C 294 343.965, 293.325 345.315, 292.500 346 C 291.675 346.685, 291 348.058, 291 349.051 C 291 350.044, 290.325 351.532, 289.500 352.357 C 288.675 353.182, 288 354.528, 288 355.348 C 288 356.167, 287.380 358.112, 286.622 359.669 C 282.686 367.758, 278.995 378.134, 274.054 395 C 269.364 411.006, 267.567 418.815, 265.996 430 C 265.494 433.575, 264.650 438.075, 264.121 440 C 261.585 449.221, 259.199 484.129, 259.199 512 C 259.199 539.138, 261.659 575.226, 264.107 584 C 264.644 585.925, 265.494 590.425, 265.996 594 C 267.068 601.633, 268.655 609.529, 270.519 616.500 C 274.215 630.322, 281.039 651.923, 283.470 657.500 C 287.165 665.974, 288 668.192, 288 669.534 C 288 670.340, 288.441 671, 288.981 671 C 289.520 671, 290.258 672.178, 290.619 673.618 C 291.377 676.637, 295.532 684.660, 301.176 694 C 303.336 697.575, 305.643 701.398, 306.302 702.496 C 306.961 703.594, 308.738 706.134, 310.250 708.140 C 311.762 710.146, 313 712.286, 313 712.894 C 313 713.502, 313.363 714, 313.807 714 C 314.251 714, 316.839 717.037, 319.557 720.750 C 324.737 727.822, 345.697 749.352, 352.415 754.500 C 354.568 756.150, 358.618 759.174, 361.415 761.220 C 364.212 763.266, 367.044 765.404, 367.708 765.970 C 368.372 766.537, 369.137 767, 369.408 767 C 369.678 767, 371.835 768.305, 374.200 769.900 C 380.779 774.337, 410.667 789, 413.133 789 C 413.719 789, 415.616 789.605, 417.349 790.345 C 419.082 791.085, 422.975 792.407, 426 793.285 C 429.025 794.162, 433.750 795.537, 436.500 796.341 C 439.250 797.145, 443.075 798.093, 445 798.448 C 446.925 798.803, 451.200 799.715, 454.500 800.475 C 480.894 806.555, 536.645 807.821, 566 803.007 C 578.873 800.896, 602.370 795.468, 605.206 793.951 C 606.145 793.448, 608.732 792.747, 610.956 792.391 C 613.180 792.035, 615 791.388, 615 790.952 C 615 790.516, 616.462 789.841, 618.250 789.452 C 620.038 789.063, 622.388 788.127, 623.473 787.372 C 624.557 786.618, 626.470 786, 627.723 786 C 628.975 786, 630 785.559, 630 785.019 C 630 784.480, 631.166 783.745, 632.591 783.388 C 637.922 782.050, 668 763.715, 668 761.803 C 668 761.361, 668.638 761, 669.417 761 C 670.196 761, 670.983 760.662, 671.167 760.250 C 671.350 759.837, 673.968 757.475, 676.986 755 C 692.197 742.522, 707.846 724.629, 717.654 708.500 C 720.990 703.015, 730 684.398, 730 682.991 C 730 682.106, 730.661 680.509, 731.468 679.441 C 732.276 678.374, 732.951 676.517, 732.968 675.315 C 732.986 674.113, 733.530 671.863, 734.179 670.315 C 735.759 666.540, 737.889 656.183, 738.973 647 C 741.376 626.631, 738.950 594.079, 734.179 582.685 C 733.530 581.137, 733 579.036, 733 578.016 C 733 576.996, 732.380 574.888, 731.622 573.331 C 730.865 571.774, 729.469 568.700, 728.522 566.500 C 725.343 559.119, 722.510 553.546, 721.250 552.196 C 720.563 551.460, 720 550.478, 720 550.015 C 720 546.598, 690.340 513.013, 687.306 512.995 C 686.863 512.993, 685.062 511.643, 683.304 509.995 C 681.547 508.348, 679.854 507, 679.544 507 C 679.234 507, 676.847 505.510, 674.240 503.688 C 671.633 501.866, 668.825 500.061, 668 499.677 C 667.175 499.293, 665.150 498.088, 663.500 497 C 661.850 495.912, 659.825 494.760, 659 494.439 C 658.175 494.118, 656.825 493.435, 656 492.921 C 655.175 492.408, 653.825 491.732, 653 491.420 C 645.350 488.525, 644.198 486.253, 642.478 470.679 C 640.822 455.681, 637.227 439.335, 634.378 433.846 C 633.620 432.386, 633 430.545, 633 429.756 C 633 427.978, 623.524 409.237, 621.487 406.986 C 620.669 406.082, 620 405.008, 620 404.600 C 620 404.191, 619.438 403.264, 618.750 402.539 C 618.063 401.815, 616.600 399.961, 615.500 398.421 C 614.400 396.881, 612.263 394.341, 610.750 392.776 C 609.237 391.211, 608 389.497, 608 388.966 C 608 388.434, 607.597 388, 607.105 388 C 606.613 388, 604.066 385.975, 601.446 383.500 C 598.826 381.025, 596.336 379, 595.912 379 C 595.489 379, 594.548 378.418, 593.821 377.706 C 591.951 375.874, 580.439 369, 579.242 369 C 578.693 369, 577.685 368.325, 577 367.500 C 576.315 366.675, 574.771 366, 573.569 366 C 572.366 366, 570.509 365.339, 569.441 364.532 C 568.374 363.724, 566.742 363.049, 565.815 363.032 C 564.888 363.014, 562.863 362.470, 561.315 361.821 C 543.246 354.255, 492.645 354.251, 474.685 361.814 C 473.137 362.466, 471.276 363, 470.549 363 C 469.823 363, 467.940 363.672, 466.364 364.494 C 464.789 365.315, 462.768 365.990, 461.872 365.994 C 460.977 365.997, 459.685 366.675, 459 367.500 C 458.315 368.325, 456.965 369, 456 369 C 455.035 369, 453.685 369.675, 453 370.500 C 452.315 371.325, 451.167 372, 450.449 372 C 449.731 372, 448.548 372.579, 447.821 373.287 C 447.095 373.996, 444.700 375.674, 442.500 377.018 C 437.044 380.351, 434.752 382.296, 426.022 391 C 412.571 404.412, 409.262 409.996, 413.895 411.467 C 415.053 411.834, 416 412.502, 416 412.951 C 416 413.400, 416.788 414.027, 417.750 414.345 C 418.712 414.662, 422.875 417.422, 427 420.477 C 431.125 423.532, 435.175 426.328, 436 426.690 C 436.825 427.052, 440.053 429.295, 443.174 431.674 C 448.396 435.655, 452 437.112, 452 435.240 C 452 428.925, 483.367 408, 492.834 408 C 494.355 408, 496.142 407.458, 496.805 406.795 C 498.508 405.092, 526.855 404.448, 534 405.950 C 537.025 406.586, 541.300 407.450, 543.500 407.870 C 545.700 408.290, 548.400 409.106, 549.500 409.683 C 550.600 410.260, 554.650 412.247, 558.500 414.099 C 568.972 419.136, 579.243 429.786, 584.834 441.406 C 589.753 451.629, 591 454.950, 591 457.834 C 591 459.355, 591.470 461.070, 592.045 461.645 C 599.601 469.201, 591.573 473.265, 574.553 470.502 C 562.526 468.550, 516.435 468.816, 504 470.910 C 495.144 472.401, 480.337 475.757, 477.500 476.916 C 476.400 477.365, 472.800 478.739, 469.500 479.969 C 463.623 482.160, 450.989 488.011, 450 489 C 449.046 489.954, 443.079 494, 442.625 494 C 440.455 494, 420.730 513.875, 418.620 518.188 C 418.267 518.910, 417.112 520.850, 416.055 522.500 C 413.578 526.362, 410 533.404, 410 534.415 C 410 534.845, 409.372 536.616, 408.604 538.349 C 402.947 551.117, 402.947 586.883, 408.604 599.651 C 409.372 601.384, 410 603.184, 410 603.651 C 409.999 604.551, 416.149 617.151, 417.003 618 C 417.279 618.275, 418.854 620.515, 420.503 622.978 C 427.385 633.261, 444.778 647.538, 457.500 653.347 C 459.700 654.352, 462.774 655.810, 464.331 656.587 C 465.888 657.364, 467.546 658, 468.016 658 C 468.486 658, 470.137 658.529, 471.685 659.175 C 486.286 665.272, 540.322 668.035, 546.500 663.002 C 547.050 662.554, 549.750 661.858, 552.500 661.456 C 555.250 661.054, 558.388 660.111, 559.473 659.362 C 560.557 658.613, 562.291 658, 563.325 658 C 565.151 658, 584.954 648.539, 585.986 647.174 C 586.269 646.800, 588.382 645.218, 590.682 643.658 C 595.999 640.053, 606.414 629.978, 611.523 623.500 C 613.691 620.750, 615.811 618.350, 616.233 618.167 C 616.655 617.983, 617 617.378, 617 616.821 C 617 616.264, 617.930 614.503, 619.066 612.908 C 622.178 608.536, 629.777 593.294, 630.512 589.945 C 630.868 588.325, 631.573 587, 632.079 587 C 632.586 587, 633 585.831, 633 584.401 C 633 582.972, 633.608 580.384, 634.352 578.651 C 636.195 574.356, 637.950 567.657, 639.066 560.659 C 641.037 548.296, 642.896 543.757, 645.699 544.461 C 653.220 546.348, 679 571.541, 679 577.002 C 679 577.551, 679.441 578, 679.981 578 C 680.520 578, 681.265 579.237, 681.635 580.750 C 682.005 582.263, 682.580 583.725, 682.913 584 C 683.852 584.775, 687.998 595.357, 688.015 597.019 C 688.023 597.834, 688.641 600.300, 689.388 602.500 C 692.332 611.166, 692.055 648.345, 689.023 651.377 C 688.460 651.940, 687.997 653.548, 687.994 654.950 C 687.990 656.353, 687.315 658.789, 686.494 660.364 C 685.672 661.940, 685 663.692, 685 664.259 C 685 665.855, 677.828 680.458, 676.859 680.833 C 676.387 681.017, 676 681.635, 676 682.206 C 676 686.296, 655.217 709.962, 645.019 717.486 C 643.151 718.864, 641.371 720.331, 641.062 720.746 C 640.753 721.160, 639.789 721.950, 638.919 722.500 C 638.049 723.050, 634.674 725.295, 631.419 727.489 C 621.978 733.852, 608.796 741, 606.501 741 C 605.765 741, 603.888 741.647, 602.331 742.439 C 597.029 745.134, 592.201 747, 590.533 747 C 589.618 747, 588.025 747.451, 586.995 748.003 C 582.541 750.387, 559.663 754.560, 542.500 756.120 C 528.746 757.370, 488.061 756.721, 480.500 755.130 C 477.750 754.552, 472.575 753.621, 469 753.060 C 458.398 751.399, 439.118 746.400, 437.550 744.905 C 437.028 744.407, 435.651 744, 434.491 744 C 433.331 744, 431.509 743.339, 430.441 742.532 C 429.374 741.724, 427.704 741.049, 426.731 741.032 C 425.758 741.014, 422.432 739.650, 419.340 738 C 416.248 736.350, 413.139 735, 412.431 735 C 411.722 735, 410.540 734.438, 409.804 733.750 C 409.067 733.063, 406.335 731.384, 403.732 730.021 C 401.130 728.657, 399 727.305, 399 727.015 C 399 726.725, 397.698 725.912, 396.106 725.207 C 394.515 724.503, 392.067 722.865, 390.666 721.567 C 389.266 720.269, 387.697 719.048, 387.181 718.853 C 382.467 717.080, 356.105 690.328, 355.177 686.376 C 354.999 685.619, 354.480 685, 354.023 685 C 353.145 685, 343.407 670.273, 342.298 667.266 C 341.939 666.295, 341.355 665.275, 341 665 C 339.747 664.031, 329.153 641.275, 326.539 633.940 C 322.698 623.160, 320.998 617.987, 319.950 613.890 C 317.157 602.965, 315.780 597.138, 314.894 592.500 C 314.369 589.750, 313.466 585.382, 312.888 582.793 C 312.310 580.204, 311.423 574.354, 310.918 569.793 C 310.412 565.232, 309.536 558.125, 308.970 554 C 307.640 544.301, 307.658 477.482, 308.993 469 C 309.556 465.425, 310.442 458.313, 310.963 453.197 C 311.483 448.080, 312.353 442.455, 312.896 440.697 C 313.439 438.938, 314.320 435.025, 314.855 432 C 315.742 426.975, 316.794 422.456, 319.950 410.110 C 320.998 406.013, 322.698 400.840, 326.539 390.060 C 329.013 383.116, 339.681 360.086, 340.927 359 C 341.242 358.725, 342.616 356.363, 343.979 353.750 C 345.343 351.137, 346.695 349, 346.985 349 C 347.275 349, 348.088 347.698, 348.793 346.106 C 349.497 344.515, 351.135 342.067, 352.433 340.666 C 353.731 339.266, 354.952 337.697, 355.147 337.181 C 357.001 332.253, 384.677 305, 387.828 305 C 388.472 305, 389 304.593, 389 304.096 C 389 303.174, 403.528 293.495, 406.734 292.281 C 407.705 291.913, 409.095 291.024, 409.821 290.306 C 410.548 289.588, 412.011 289, 413.071 289 C 414.132 289, 415 288.559, 415 288.019 C 415 287.480, 416.238 286.737, 417.750 286.370 C 419.262 286.002, 421.388 285.094, 422.473 284.351 C 423.557 283.608, 425.443 283, 426.663 283 C 427.884 283, 429.120 282.615, 429.410 282.145 C 429.701 281.675, 432.765 280.370, 436.219 279.244 C 464.500 270.026, 483.530 267.153, 516.500 267.125 C 535.456 267.109, 541.385 267.502, 559 269.944 C 573.768 271.991, 601.899 279.947, 611.763 284.865 C 612.718 285.342, 616.650 287.219, 620.500 289.038 C 649.442 302.708, 675.639 327.090, 694.202 357.636 C 696.380 361.220, 706.595 382.214, 708.490 387 C 709.470 389.475, 710.886 392.918, 711.636 394.651 C 712.386 396.384, 713 398.657, 713 399.701 C 713 400.746, 713.460 402.060, 714.022 402.622 C 714.584 403.184, 715.376 405.590, 715.782 407.969 C 716.790 413.872, 718.671 414.872, 724.702 412.710 C 727.341 411.764, 730.461 410.992, 731.636 410.995 C 732.810 410.998, 735.060 410.328, 736.636 409.506 C 738.211 408.685, 740.936 408.010, 742.691 408.006 C 744.446 408.003, 746.136 407.589, 746.446 407.087 C 746.757 406.585, 748.921 405.876, 751.255 405.512 C 760.537 404.066, 764.236 402, 763.668 398.580 C 762.761 393.116, 758.635 380.278, 756.361 375.846 C 755.613 374.386, 755 372.629, 755 371.943 C 755 371.256, 753.668 367.874, 752.039 364.427 C 750.411 360.981, 748.787 357, 748.431 355.580 C 748.075 354.161, 747.382 353, 746.892 353 C 746.401 353, 746 352.522, 746 351.938 C 746 350.638, 741.592 341.601, 738.957 337.500 C 737.897 335.850, 736.554 333.600, 735.972 332.500 C 724.409 310.638, 695.761 278.621, 675.230 264.614 C 672.904 263.027, 671 261.339, 671 260.864 C 671 260.389, 670.498 260, 669.884 260 C 669.271 260, 665.783 258.024, 662.134 255.610 C 654.585 250.614, 637.300 241.543, 633.523 240.595 C 632.135 240.247, 631 239.520, 631 238.981 C 631 238.441, 629.961 238, 628.691 238 C 627.421 238, 625.509 237.339, 624.441 236.532 C 623.374 235.724, 621.588 235.049, 620.473 235.032 C 619.357 235.014, 617.557 234.389, 616.473 233.642 C 615.388 232.895, 612.757 231.964, 610.627 231.573 C 608.497 231.183, 606.022 230.481, 605.127 230.013 C 602.237 228.503, 580.693 223.587, 565.500 220.971 C 549.966 218.296, 508.207 217.305, 484 219.036 M 519.957 518.377 C 519.675 518.658, 515.407 519.385, 510.472 519.993 C 497.891 521.541, 482.700 526.584, 473.500 532.265 C 469.958 534.452, 458 546.994, 458 548.522 C 458 549.335, 457.611 550, 457.135 550 C 453.225 550, 450.287 577.687, 453.822 581.222 C 454.470 581.870, 455 583.380, 455 584.578 C 455 585.775, 455.675 587.315, 456.500 588 C 457.325 588.685, 458 589.837, 458 590.560 C 458 592.581, 470.415 604.844, 474.170 606.532 C 476.001 607.356, 478.175 608.409, 479 608.873 C 484.398 611.906, 487.101 613, 489.204 613 C 490.522 613, 492.096 613.496, 492.702 614.102 C 495.280 616.680, 534.905 616.762, 539.531 614.200 C 540.614 613.600, 543.188 612.839, 545.250 612.509 C 547.313 612.179, 549 611.480, 549 610.955 C 549 610.430, 549.729 610, 550.619 610 C 558.587 610, 576.226 592.279, 582.967 577.500 C 584.222 574.750, 585.867 571.306, 586.624 569.846 C 587.381 568.386, 588 566.300, 588 565.210 C 588 564.120, 588.672 561.940, 589.494 560.364 C 590.315 558.789, 590.990 555.903, 590.994 553.950 C 590.997 551.998, 591.452 549.948, 592.005 549.395 C 593.187 548.213, 595.246 528.351, 594.448 525.836 C 593.007 521.295, 523.953 514.380, 519.957 518.377" stroke="none" fill="#9ba3ab" fill-rule="evenodd"/></svg>